<?xml version="1.0" encoding="utf-8"?>
<!-- Generator: Adobe Illustrator 15.0.2, SVG Export Plug-In . SVG Version: 6.00 Build 0)  -->
<!DOCTYPE svg PUBLIC "-//W3C//DTD SVG 1.1//EN" "http://www.w3.org/Graphics/SVG/1.1/DTD/svg11.dtd">
<svg version="1.1" id="Layer_1" xmlns="http://www.w3.org/2000/svg" xmlns:xlink="http://www.w3.org/1999/xlink" x="0px" y="0px"
	 width="32px" height="64px" viewBox="0 0 32 64" enable-background="new 0 0 32 64" xml:space="preserve">
<path fill="#C0C0C8" d="M16,2C8.268,2,2,8.268,2,16s6.268,14,14,14s14-6.268,14-14S23.732,2,16,2z M24.5,21.5l-3,3L16,19l-5.5,5.5
	l-3-3L13,16l-5.5-5.5l3-3L16,13l5.5-5.5l3,3L19,16L24.5,21.5z"/>
<path fill="#A0A0A8" d="M16,34C8.268,34,2,40.268,2,48s6.268,14,14,14s14-6.268,14-14S23.732,34,16,34z M24.5,53.5l-3,3L16,51
	l-5.5,5.5l-3-3L13,48l-5.5-5.5l3-3L16,45l5.5-5.5l3,3L19,48L24.5,53.5z"/>
</svg>
